<?xml version="1.0" encoding="UTF-8"?>
<!DOCTYPE svg PUBLIC "-//W3C//DTD SVG 1.1//EN" "http://www.w3.org/Graphics/SVG/1.1/DTD/svg11.dtd">
<svg xmlns="http://www.w3.org/2000/svg" version="1.1" width="500px" height="500px" style="shape-rendering:geometricPrecision; text-rendering:geometricPrecision; image-rendering:optimizeQuality; fill-rule:evenodd; clip-rule:evenodd" xmlns:xlink="http://www.w3.org/1999/xlink">
<g><path style="opacity:1" fill="#fefefe" d="M -0.5,-0.5 C 166.167,-0.5 332.833,-0.5 499.5,-0.5C 499.5,166.167 499.5,332.833 499.5,499.5C 332.833,499.5 166.167,499.5 -0.5,499.5C -0.5,332.833 -0.5,166.167 -0.5,-0.5 Z"/></g>
<g><path style="opacity:1" fill="#142950" d="M 349.5,229.5 C 349.579,226.729 349.079,224.063 348,221.5C 344.667,217.5 341.333,213.5 338,209.5C 335.665,211.4 333.498,213.4 331.5,215.5C 329.608,216.702 327.774,218.035 326,219.5C 325.667,243.167 325.333,266.833 325,290.5C 319.467,319.369 302.634,338.203 274.5,347C 257.123,350.486 240.456,348.486 224.5,341C 217.323,335.977 210.323,330.81 203.5,325.5C 204.965,324.263 206.632,323.263 208.5,322.5C 210.316,326.775 213.316,327.608 217.5,325C 225.833,318 233.5,310.333 240.5,302C 244.102,301.571 246.768,299.737 248.5,296.5C 250.078,295.702 251.744,295.202 253.5,295C 254.542,293.082 255.708,291.249 257,289.5C 258.5,291 260,292.5 261.5,294C 260.262,293.923 259.262,294.089 258.5,294.5C 261.355,297.911 261.022,300.911 257.5,303.5C 260.651,306.263 263.651,309.263 266.5,312.5C 264.892,313.242 263.225,313.409 261.5,313C 265.659,316.247 269.992,319.247 274.5,322C 270.925,321.816 267.425,320.982 264,319.5C 263.5,319.667 263,319.833 262.5,320C 265.009,321.421 267.343,323.088 269.5,325C 264.833,325 260.167,325 255.5,325C 260.922,328.249 266.589,330.915 272.5,333C 268.816,333.001 265.15,332.501 261.5,331.5C 260.5,331.833 259.5,332.167 258.5,332.5C 261.009,333.921 263.343,335.588 265.5,337.5C 263.167,338.167 260.833,338.833 258.5,339.5C 260.415,341.071 261.415,343.071 261.5,345.5C 280.253,343.707 295.753,335.707 308,321.5C 308.483,320.552 308.649,319.552 308.5,318.5C 307.448,318.649 306.448,318.483 305.5,318C 307.888,317.697 310.055,316.863 312,315.5C 315.854,310.461 318.021,304.795 318.5,298.5C 315.003,297.94 312.503,295.94 311,292.5C 310.667,293.5 310.333,294.5 310,295.5C 307.584,287.652 303.417,280.985 297.5,275.5C 296.197,277.937 294.53,280.104 292.5,282C 293.167,282.667 293.833,283.333 294.5,284C 292.269,285.61 290.269,287.443 288.5,289.5C 290.167,290.167 291.833,290.833 293.5,291.5C 292.167,293.167 290.833,294.833 289.5,296.5C 290.811,297.258 291.311,298.258 291,299.5C 289.846,300.743 288.512,301.743 287,302.5C 287.994,305.897 287.66,309.23 286,312.5C 285.535,311.069 284.701,309.903 283.5,309C 280.758,307.93 278.258,306.43 276,304.5C 275.667,305.5 275.333,306.5 275,307.5C 273.39,305.269 271.557,303.269 269.5,301.5C 268.749,302.376 268.249,303.376 268,304.5C 266.291,301.582 264.458,298.748 262.5,296C 264.95,297.126 266.95,296.459 268.5,294C 265.326,293.161 262.659,291.495 260.5,289C 262.377,286.749 263.877,284.249 265,281.5C 269.212,277.621 273.712,274.121 278.5,271C 276.266,269.25 273.932,267.75 271.5,266.5C 271.783,265.711 272.283,265.044 273,264.5C 274,265.833 275,265.833 276,264.5C 277.174,267.238 279.007,269.238 281.5,270.5C 284.115,272.379 286.281,274.712 288,277.5C 291.01,275.817 294.01,274.15 297,272.5C 304.512,280.353 311.679,288.519 318.5,297C 319.6,297.432 320.267,296.932 320.5,295.5C 321.064,293.181 321.564,290.847 322,288.5C 322.667,266.5 322.667,244.5 322,222.5C 316.483,226.594 311.15,230.927 306,235.5C 306.237,243.156 306.237,250.823 306,258.5C 305.333,259.167 304.667,259.833 304,260.5C 300.392,253.607 296.559,246.941 292.5,240.5C 286.072,235.775 279.405,231.275 272.5,227C 273.529,225.302 275.029,224.468 277,224.5C 284.447,226.119 291.947,226.952 299.5,227C 306.708,219.296 313.708,211.462 320.5,203.5C 323.395,201.798 325.228,199.464 326,196.5C 321.157,190.846 315.323,186.846 308.5,184.5C 297.445,181.037 286.445,177.371 275.5,173.5C 276.871,171.295 278.704,169.628 281,168.5C 288.764,170.2 296.598,171.033 304.5,171C 283.869,150.872 259.869,145.539 232.5,155C 215.196,162.469 203.196,174.969 196.5,192.5C 195.463,193.93 194.796,195.597 194.5,197.5C 193.083,200.998 192.417,204.665 192.5,208.5C 191.167,233.5 191.167,258.5 192.5,283.5C 192.457,286.91 192.957,290.243 194,293.5C 195.724,290.27 197.724,289.936 200,292.5C 202.657,289.853 204.823,286.853 206.5,283.5C 207.628,282.738 208.795,282.071 210,281.5C 212.127,277.411 214.627,273.577 217.5,270C 219.167,269.333 220.833,269.333 222.5,270C 223.252,270.671 223.586,271.504 223.5,272.5C 222.399,271.2 221.066,270.7 219.5,271C 217.679,273.729 217.012,276.563 217.5,279.5C 218.609,278.41 219.609,278.41 220.5,279.5C 218.422,281.428 217.755,283.595 218.5,286C 214.577,288.793 210.244,290.793 205.5,292C 202.591,293.406 200.591,295.572 199.5,298.5C 197.046,300.06 194.38,301.06 191.5,301.5C 190.605,296.858 189.772,292.191 189,287.5C 188.333,259.833 188.333,232.167 189,204.5C 193.522,179.989 207.022,162.489 229.5,152C 259.222,140.956 285.389,146.456 308,168.5C 311.833,167 313,168.167 311.5,172C 316.424,174.545 320.424,173.545 323.5,169C 324.448,168.517 325.448,168.351 326.5,168.5C 326.739,170.467 326.406,172.301 325.5,174C 327.259,174.798 328.926,174.631 330.5,173.5C 316.836,150.024 296.503,136.191 269.5,132C 227.646,129.01 197.813,146.51 180,184.5C 178.465,188.773 177.131,193.106 176,197.5C 175.333,230.833 175.333,264.167 176,297.5C 176.199,300.722 177.032,303.722 178.5,306.5C 175.085,308.279 171.419,309.613 167.5,310.5C 166.35,304.56 165.517,298.56 165,292.5C 164.333,261.833 164.333,231.167 165,200.5C 177.139,151.363 208.473,125.03 259,121.5C 296.838,123.652 324.005,141.652 340.5,175.5C 344.486,177.044 348.153,176.544 351.5,174C 357.902,166.927 364.902,160.594 372.5,155C 386.076,153.388 389.243,158.554 382,170.5C 375.636,177.199 368.969,183.532 362,189.5C 361.333,196.833 361.333,204.167 362,211.5C 363.826,210.159 364.993,210.659 365.5,213C 364.73,214.775 363.563,216.275 362,217.5C 361.333,222.833 361.333,228.167 362,233.5C 363.011,232.663 364.178,232.33 365.5,232.5C 365.872,235.022 365.039,237.022 363,238.5C 362.667,245.5 362.333,252.5 362,259.5C 360.981,260.687 359.814,261.687 358.5,262.5C 355.019,251.572 352.019,240.572 349.5,229.5 Z"/></g>
<g><path style="opacity:1" fill="#c86be3" d="M 191.5,301.5 C 187.623,304.129 183.29,305.796 178.5,306.5C 177.032,303.722 176.199,300.722 176,297.5C 175.333,264.167 175.333,230.833 176,197.5C 177.131,193.106 178.465,188.773 180,184.5C 197.813,146.51 227.646,129.01 269.5,132C 296.503,136.191 316.836,150.024 330.5,173.5C 328.926,174.631 327.259,174.798 325.5,174C 326.406,172.301 326.739,170.467 326.5,168.5C 325.448,168.351 324.448,168.517 323.5,169C 320.424,173.545 316.424,174.545 311.5,172C 313,168.167 311.833,167 308,168.5C 285.389,146.456 259.222,140.956 229.5,152C 207.022,162.489 193.522,179.989 189,204.5C 188.333,232.167 188.333,259.833 189,287.5C 189.772,292.191 190.605,296.858 191.5,301.5 Z"/></g>
<g><path style="opacity:1" fill="#f9a50b" d="M 308.5,184.5 C 312.675,185.998 316.009,188.665 318.5,192.5C 319.75,195.006 320.416,197.673 320.5,200.5C 320.5,201.5 320.5,202.5 320.5,203.5C 313.708,211.462 306.708,219.296 299.5,227C 291.947,226.952 284.447,226.119 277,224.5C 275.029,224.468 273.529,225.302 272.5,227C 279.405,231.275 286.072,235.775 292.5,240.5C 291.833,240.5 291.5,240.833 291.5,241.5C 283.881,246.454 276.548,251.787 269.5,257.5C 267.487,255.503 265.154,253.836 262.5,252.5C 261.833,251.167 260.833,250.167 259.5,249.5C 258.923,248.227 258.257,248.227 257.5,249.5C 254.574,255.26 250.407,259.927 245,263.5C 243.675,267.502 241.342,269.835 238,270.5C 236.909,274.609 234.409,276.776 230.5,277C 229.529,275.519 228.196,274.685 226.5,274.5C 225.5,273.833 224.5,273.167 223.5,272.5C 223.586,271.504 223.252,270.671 222.5,270C 220.833,269.333 219.167,269.333 217.5,270C 214.627,273.577 212.127,277.411 210,281.5C 208.795,282.071 207.628,282.738 206.5,283.5C 204.823,286.853 202.657,289.853 200,292.5C 197.724,289.936 195.724,290.27 194,293.5C 192.957,290.243 192.457,286.91 192.5,283.5C 192.5,264.5 192.5,245.5 192.5,226.5C 194.833,226.5 197.167,226.5 199.5,226.5C 203.167,226.5 206.833,226.5 210.5,226.5C 219.839,226.666 229.173,226.5 238.5,226C 237.584,225.722 236.918,225.222 236.5,224.5C 246.486,225.424 256.486,225.59 266.5,225C 261.343,224.821 256.343,223.987 251.5,222.5C 262.398,221.705 273.398,220.539 284.5,219C 273.992,218.83 263.659,218.33 253.5,217.5C 259.509,217.666 265.509,217.499 271.5,217C 263.536,215.943 255.536,215.277 247.5,215C 244.89,213.519 242.223,212.352 239.5,211.5C 239.815,209.774 239.981,208.107 240,206.5C 237.662,205.16 235.329,203.826 233,202.5C 230.636,203.992 229.136,203.326 228.5,200.5C 241.062,200.347 253.396,201.847 265.5,205C 274.562,205.881 283.562,205.548 292.5,204C 287.487,201.459 282.154,199.793 276.5,199C 275.833,198.333 275.167,197.667 274.5,197C 278.211,196.825 281.878,196.325 285.5,195.5C 281.217,194.508 276.884,194.174 272.5,194.5C 271.5,194.5 270.5,194.5 269.5,194.5C 269.082,193.778 268.416,193.278 267.5,193C 277.24,192.921 286.907,192.255 296.5,191C 290.801,190.688 285.134,190.188 279.5,189.5C 275.524,188.553 271.524,188.387 267.5,189C 265.974,187.113 263.974,186.113 261.5,186C 260.707,184.915 260.04,183.748 259.5,182.5C 255.95,181.594 252.617,180.26 249.5,178.5C 246.97,177.224 244.303,177.224 241.5,178.5C 240.102,176.203 238.436,174.037 236.5,172C 230.162,168.776 226.162,170.609 224.5,177.5C 223.784,176.689 222.95,176.022 222,175.5C 220.053,176.686 218.22,178.02 216.5,179.5C 211.906,175.27 208.073,175.936 205,181.5C 204.264,184.592 204.431,187.592 205.5,190.5C 204.432,191.434 203.099,191.768 201.5,191.5C 200.115,192.614 198.615,193.614 197,194.5C 196.536,193.906 196.369,193.239 196.5,192.5C 203.196,174.969 215.196,162.469 232.5,155C 259.869,145.539 283.869,150.872 304.5,171C 296.598,171.033 288.764,170.2 281,168.5C 278.704,169.628 276.871,171.295 275.5,173.5C 286.445,177.371 297.445,181.037 308.5,184.5 Z"/></g>
<g><path style="opacity:1" fill="#fc963a" d="M 249.5,178.5 C 245.668,180.28 241.668,180.113 237.5,178C 230.044,177.423 224.378,180.423 220.5,187C 215.901,189.867 210.901,191.034 205.5,190.5C 204.431,187.592 204.264,184.592 205,181.5C 208.073,175.936 211.906,175.27 216.5,179.5C 218.22,178.02 220.053,176.686 222,175.5C 222.95,176.022 223.784,176.689 224.5,177.5C 226.162,170.609 230.162,168.776 236.5,172C 238.436,174.037 240.102,176.203 241.5,178.5C 244.303,177.224 246.97,177.224 249.5,178.5 Z"/></g>
<g><path style="opacity:1" fill="#fd7a88" d="M 249.5,178.5 C 252.617,180.26 255.95,181.594 259.5,182.5C 260.04,183.748 260.707,184.915 261.5,186C 263.974,186.113 265.974,187.113 267.5,189C 271.524,188.387 275.524,188.553 279.5,189.5C 279.611,190.117 279.944,190.617 280.5,191C 274.103,191.182 267.77,191.848 261.5,193C 263.937,194.375 266.603,194.875 269.5,194.5C 270.5,194.5 271.5,194.5 272.5,194.5C 272.611,195.117 272.944,195.617 273.5,196C 257.108,196.924 240.774,196.424 224.5,194.5C 223.5,194.5 222.5,194.5 221.5,194.5C 221.611,193.883 221.944,193.383 222.5,193C 215.321,192.829 208.321,192.329 201.5,191.5C 203.099,191.768 204.432,191.434 205.5,190.5C 210.901,191.034 215.901,189.867 220.5,187C 224.378,180.423 230.044,177.423 237.5,178C 241.668,180.113 245.668,180.28 249.5,178.5 Z"/></g>
<g><path style="opacity:1" fill="#fc8b57" d="M 279.5,189.5 C 285.134,190.188 290.801,190.688 296.5,191C 286.907,192.255 277.24,192.921 267.5,193C 268.416,193.278 269.082,193.778 269.5,194.5C 266.603,194.875 263.937,194.375 261.5,193C 267.77,191.848 274.103,191.182 280.5,191C 279.944,190.617 279.611,190.117 279.5,189.5 Z"/></g>
<g><path style="opacity:1" fill="#f8933d" d="M 201.5,191.5 C 208.321,192.329 215.321,192.829 222.5,193C 221.944,193.383 221.611,193.883 221.5,194.5C 212.375,194.779 203.375,195.779 194.5,197.5C 194.796,195.597 195.463,193.93 196.5,192.5C 196.369,193.239 196.536,193.906 197,194.5C 198.615,193.614 200.115,192.614 201.5,191.5 Z"/></g>
<g><path style="opacity:1" fill="#202c52" d="M 318.5,192.5 C 320.683,193.85 322.35,195.684 323.5,198C 323.252,199.749 322.252,200.582 320.5,200.5C 320.416,197.673 319.75,195.006 318.5,192.5 Z"/></g>
<g><path style="opacity:1" fill="#fc953a" d="M 224.5,194.5 C 240.774,196.424 257.108,196.924 273.5,196C 272.944,195.617 272.611,195.117 272.5,194.5C 276.884,194.174 281.217,194.508 285.5,195.5C 281.878,196.325 278.211,196.825 274.5,197C 275.167,197.667 275.833,198.333 276.5,199C 282.154,199.793 287.487,201.459 292.5,204C 283.562,205.548 274.562,205.881 265.5,205C 253.396,201.847 241.062,200.347 228.5,200.5C 226.983,200.511 225.816,201.177 225,202.5C 223.267,197.551 220.767,197.218 217.5,201.5C 214.359,200.679 211.025,200.179 207.5,200C 209.715,198.956 212.048,198.29 214.5,198C 212.833,197.667 211.167,197.333 209.5,197C 214.728,196.704 219.728,195.871 224.5,194.5 Z"/></g>
<g><path style="opacity:1" fill="#e061b0" d="M 308.5,184.5 C 315.323,186.846 321.157,190.846 326,196.5C 325.228,199.464 323.395,201.798 320.5,203.5C 320.5,202.5 320.5,201.5 320.5,200.5C 322.252,200.582 323.252,199.749 323.5,198C 322.35,195.684 320.683,193.85 318.5,192.5C 316.009,188.665 312.675,185.998 308.5,184.5 Z"/></g>
<g><path style="opacity:1" fill="#f9a411" d="M 221.5,194.5 C 222.5,194.5 223.5,194.5 224.5,194.5C 219.728,195.871 214.728,196.704 209.5,197C 211.167,197.333 212.833,197.667 214.5,198C 212.048,198.29 209.715,198.956 207.5,200C 211.025,200.179 214.359,200.679 217.5,201.5C 217.063,203.074 216.063,204.241 214.5,205C 212.167,205.333 209.833,205.667 207.5,206C 205.963,207.11 205.297,208.61 205.5,210.5C 202.285,211.927 199.118,213.594 196,215.5C 194.989,214.663 193.822,214.33 192.5,214.5C 192.5,212.5 192.5,210.5 192.5,208.5C 192.417,204.665 193.083,200.998 194.5,197.5C 203.375,195.779 212.375,194.779 221.5,194.5 Z"/></g>
<g><path style="opacity:1" fill="#fd798a" d="M 228.5,200.5 C 229.136,203.326 230.636,203.992 233,202.5C 235.329,203.826 237.662,205.16 240,206.5C 239.981,208.107 239.815,209.774 239.5,211.5C 242.223,212.352 244.89,213.519 247.5,215C 255.536,215.277 263.536,215.943 271.5,217C 265.509,217.499 259.509,217.666 253.5,217.5C 250.395,217.599 247.728,218.599 245.5,220.5C 247.173,222.086 249.173,222.753 251.5,222.5C 256.343,223.987 261.343,224.821 266.5,225C 256.486,225.59 246.486,225.424 236.5,224.5C 227.703,225.112 219.036,225.779 210.5,226.5C 206.833,226.5 203.167,226.5 199.5,226.5C 199.082,225.778 198.416,225.278 197.5,225C 203.5,224.667 209.5,224.333 215.5,224C 215.167,223.667 214.833,223.333 214.5,223C 207.174,222.5 199.841,222.334 192.5,222.5C 192.5,219.833 192.5,217.167 192.5,214.5C 193.822,214.33 194.989,214.663 196,215.5C 199.118,213.594 202.285,211.927 205.5,210.5C 205.297,208.61 205.963,207.11 207.5,206C 209.833,205.667 212.167,205.333 214.5,205C 216.063,204.241 217.063,203.074 217.5,201.5C 220.767,197.218 223.267,197.551 225,202.5C 225.816,201.177 226.983,200.511 228.5,200.5 Z"/></g>
<g><path style="opacity:1" fill="#d660b4" d="M 349.5,229.5 C 349.167,229.5 348.833,229.5 348.5,229.5C 348.162,227.146 347.662,224.813 347,222.5C 344.96,220.63 343.127,218.63 341.5,216.5C 341.167,215.5 340.5,214.833 339.5,214.5C 339.189,213.522 338.522,212.855 337.5,212.5C 335.466,213.559 333.466,214.559 331.5,215.5C 333.498,213.4 335.665,211.4 338,209.5C 341.333,213.5 344.667,217.5 348,221.5C 349.079,224.063 349.579,226.729 349.5,229.5 Z"/></g>
<g><path style="opacity:1" fill="#c76ae2" d="M 339.5,214.5 C 339.5,240.833 339.5,267.167 339.5,293.5C 334.144,328.033 314.811,350.866 281.5,362C 245.36,371.231 215.693,361.398 192.5,332.5C 195.961,329.931 199.628,327.597 203.5,325.5C 210.323,330.81 217.323,335.977 224.5,341C 240.456,348.486 257.123,350.486 274.5,347C 302.634,338.203 319.467,319.369 325,290.5C 325.333,266.833 325.667,243.167 326,219.5C 327.774,218.035 329.608,216.702 331.5,215.5C 333.466,214.559 335.466,213.559 337.5,212.5C 338.522,212.855 339.189,213.522 339.5,214.5 Z"/></g>
<g><path style="opacity:1" fill="#5d448e" d="M 339.5,214.5 C 340.5,214.833 341.167,215.5 341.5,216.5C 340.833,242.167 340.167,267.833 339.5,293.5C 339.5,267.167 339.5,240.833 339.5,214.5 Z"/></g>
<g><path style="opacity:1" fill="#122a51" d="M 341.5,216.5 C 343.127,218.63 344.96,220.63 347,222.5C 347.662,224.813 348.162,227.146 348.5,229.5C 348.667,251.169 348.5,272.836 348,294.5C 342.229,336.934 318.729,363.767 277.5,375C 237.461,382.606 205.461,370.106 181.5,337.5C 185.043,335.562 188.71,333.895 192.5,332.5C 215.693,361.398 245.36,371.231 281.5,362C 314.811,350.866 334.144,328.033 339.5,293.5C 340.167,267.833 340.833,242.167 341.5,216.5 Z"/></g>
<g><path style="opacity:1" fill="#fc9047" d="M 253.5,217.5 C 263.659,218.33 273.992,218.83 284.5,219C 273.398,220.539 262.398,221.705 251.5,222.5C 249.173,222.753 247.173,222.086 245.5,220.5C 247.728,218.599 250.395,217.599 253.5,217.5 Z"/></g>
<g><path style="opacity:1" fill="#cd7e45" d="M 192.5,208.5 C 192.5,210.5 192.5,212.5 192.5,214.5C 192.5,217.167 192.5,219.833 192.5,222.5C 199.841,222.334 207.174,222.5 214.5,223C 214.833,223.333 215.167,223.667 215.5,224C 209.5,224.333 203.5,224.667 197.5,225C 198.416,225.278 199.082,225.778 199.5,226.5C 197.167,226.5 194.833,226.5 192.5,226.5C 192.5,245.5 192.5,264.5 192.5,283.5C 191.167,258.5 191.167,233.5 192.5,208.5 Z"/></g>
<g><path style="opacity:1" fill="#fd895f" d="M 236.5,224.5 C 236.918,225.222 237.584,225.722 238.5,226C 229.173,226.5 219.839,226.666 210.5,226.5C 219.036,225.779 227.703,225.112 236.5,224.5 Z"/></g>
<g><path style="opacity:1" fill="#f4a30e" d="M 281.5,270.5 C 279.007,269.238 277.174,267.238 276,264.5C 275,265.833 274,265.833 273,264.5C 272.283,265.044 271.783,265.711 271.5,266.5C 252.31,287.366 231.31,306.032 208.5,322.5C 206.632,323.263 204.965,324.263 203.5,325.5C 199.628,327.597 195.961,329.931 192.5,332.5C 188.71,333.895 185.043,335.562 181.5,337.5C 172.76,341.103 163.76,343.936 154.5,346C 147.167,346.667 139.833,346.667 132.5,346C 121.855,343.69 115.688,337.19 114,326.5C 113.211,320.763 113.544,315.097 115,309.5C 121.757,291.313 131.09,274.646 143,259.5C 149.042,252.962 154.875,246.295 160.5,239.5C 161.482,242.962 161.815,246.629 161.5,250.5C 161.5,250.833 161.5,251.167 161.5,251.5C 143.098,268.098 130.598,288.431 124,312.5C 121.85,324.707 126.683,332.541 138.5,336C 153.902,336.719 168.569,333.719 182.5,327C 223.257,304.27 259.59,275.77 291.5,241.5C 291.5,240.833 291.833,240.5 292.5,240.5C 296.559,246.941 300.392,253.607 304,260.5C 304.667,259.833 305.333,259.167 306,258.5C 306.237,250.823 306.237,243.156 306,235.5C 311.15,230.927 316.483,226.594 322,222.5C 322.667,244.5 322.667,266.5 322,288.5C 321.564,290.847 321.064,293.181 320.5,295.5C 320.267,296.932 319.6,297.432 318.5,297C 311.679,288.519 304.512,280.353 297,272.5C 294.01,274.15 291.01,275.817 288,277.5C 286.281,274.712 284.115,272.379 281.5,270.5 Z"/></g>
<g><path style="opacity:1" fill="#c1a367" d="M 160.5,239.5 C 160.56,238.957 160.893,238.624 161.5,238.5C 162.491,242.445 162.824,246.445 162.5,250.5C 162.167,250.5 161.833,250.5 161.5,250.5C 161.815,246.629 161.482,242.962 160.5,239.5 Z"/></g>
<g><path style="opacity:1" fill="#ef62bc" d="M 259.5,249.5 C 260.833,250.167 261.833,251.167 262.5,252.5C 263.229,254.735 264.562,256.569 266.5,258C 262.325,261.919 257.658,265.085 252.5,267.5C 254.962,264.536 257.629,261.703 260.5,259C 258.833,259.333 257.167,259.667 255.5,260C 256.687,258.981 257.687,257.814 258.5,256.5C 257.833,256.167 257.167,255.833 256.5,255.5C 257.801,253.556 258.801,251.556 259.5,249.5 Z"/></g>
<g><path style="opacity:1" fill="#16294e" d="M 291.5,241.5 C 259.59,275.77 223.257,304.27 182.5,327C 168.569,333.719 153.902,336.719 138.5,336C 126.683,332.541 121.85,324.707 124,312.5C 130.598,288.431 143.098,268.098 161.5,251.5C 161.666,257.176 161.499,262.843 161,268.5C 150.89,278.378 143.557,290.045 139,303.5C 135.408,315.354 139.575,322.021 151.5,323.5C 168.355,320.936 184.021,315.103 198.5,306C 223.62,291.788 247.287,275.621 269.5,257.5C 276.548,251.787 283.881,246.454 291.5,241.5 Z"/></g>
<g><path style="opacity:1" fill="#1f2b51" d="M 259.5,249.5 C 258.801,251.556 257.801,253.556 256.5,255.5C 257.167,255.833 257.833,256.167 258.5,256.5C 257.687,257.814 256.687,258.981 255.5,260C 257.167,259.667 258.833,259.333 260.5,259C 257.629,261.703 254.962,264.536 252.5,267.5C 245.625,273.707 237.959,278.707 229.5,282.5C 230.412,281.262 230.579,279.928 230,278.5C 228.624,277.295 227.458,275.962 226.5,274.5C 228.196,274.685 229.529,275.519 230.5,277C 234.409,276.776 236.909,274.609 238,270.5C 241.342,269.835 243.675,267.502 245,263.5C 250.407,259.927 254.574,255.26 257.5,249.5C 258.257,248.227 258.923,248.227 259.5,249.5 Z"/></g>
<g><path style="opacity:1" fill="#c75aa9" d="M 161.5,250.5 C 161.833,250.5 162.167,250.5 162.5,250.5C 162.667,261.838 162.5,273.172 162,284.5C 157.493,290.514 154.327,297.181 152.5,304.5C 152.848,306.697 153.848,308.53 155.5,310C 159.486,310.499 163.486,310.666 167.5,310.5C 171.419,309.613 175.085,308.279 178.5,306.5C 183.29,305.796 187.623,304.129 191.5,301.5C 194.38,301.06 197.046,300.06 199.5,298.5C 209.817,293.676 219.817,288.342 229.5,282.5C 237.959,278.707 245.625,273.707 252.5,267.5C 257.658,265.085 262.325,261.919 266.5,258C 264.562,256.569 263.229,254.735 262.5,252.5C 265.154,253.836 267.487,255.503 269.5,257.5C 247.287,275.621 223.62,291.788 198.5,306C 184.021,315.103 168.355,320.936 151.5,323.5C 139.575,322.021 135.408,315.354 139,303.5C 143.557,290.045 150.89,278.378 161,268.5C 161.499,262.843 161.666,257.176 161.5,251.5C 161.5,251.167 161.5,250.833 161.5,250.5 Z"/></g>
<g><path style="opacity:1" fill="#f463be" d="M 223.5,272.5 C 224.5,273.167 225.5,273.833 226.5,274.5C 227.458,275.962 228.624,277.295 230,278.5C 230.579,279.928 230.412,281.262 229.5,282.5C 219.817,288.342 209.817,293.676 199.5,298.5C 200.591,295.572 202.591,293.406 205.5,292C 210.244,290.793 214.577,288.793 218.5,286C 217.755,283.595 218.422,281.428 220.5,279.5C 219.609,278.41 218.609,278.41 217.5,279.5C 217.012,276.563 217.679,273.729 219.5,271C 221.066,270.7 222.399,271.2 223.5,272.5 Z"/></g>
<g><path style="opacity:1" fill="#ec61bb" d="M 281.5,270.5 C 282.353,273.594 284.02,276.094 286.5,278C 284.507,279.999 282.173,281.499 279.5,282.5C 279.446,281.47 279.112,280.303 278.5,279C 279.437,276.051 280.437,273.217 281.5,270.5 Z"/></g>
<g><path style="opacity:1" fill="#f864c0" d="M 271.5,266.5 C 273.932,267.75 276.266,269.25 278.5,271C 273.712,274.121 269.212,277.621 265,281.5C 263.877,284.249 262.377,286.749 260.5,289C 262.659,291.495 265.326,293.161 268.5,294C 266.95,296.459 264.95,297.126 262.5,296C 264.458,298.748 266.291,301.582 268,304.5C 268.249,303.376 268.749,302.376 269.5,301.5C 271.557,303.269 273.39,305.269 275,307.5C 275.333,306.5 275.667,305.5 276,304.5C 278.258,306.43 280.758,307.93 283.5,309C 284.701,309.903 285.535,311.069 286,312.5C 287.66,309.23 287.994,305.897 287,302.5C 288.512,301.743 289.846,300.743 291,299.5C 291.311,298.258 290.811,297.258 289.5,296.5C 290.833,294.833 292.167,293.167 293.5,291.5C 291.833,290.833 290.167,290.167 288.5,289.5C 290.269,287.443 292.269,285.61 294.5,284C 293.833,283.333 293.167,282.667 292.5,282C 294.53,280.104 296.197,277.937 297.5,275.5C 303.417,280.985 307.584,287.652 310,295.5C 310.333,294.5 310.667,293.5 311,292.5C 312.503,295.94 315.003,297.94 318.5,298.5C 318.021,304.795 315.854,310.461 312,315.5C 310.055,316.863 307.888,317.697 305.5,318C 306.448,318.483 307.448,318.649 308.5,318.5C 308.649,319.552 308.483,320.552 308,321.5C 295.753,335.707 280.253,343.707 261.5,345.5C 261.415,343.071 260.415,341.071 258.5,339.5C 260.833,338.833 263.167,338.167 265.5,337.5C 263.343,335.588 261.009,333.921 258.5,332.5C 259.5,332.167 260.5,331.833 261.5,331.5C 265.15,332.501 268.816,333.001 272.5,333C 266.589,330.915 260.922,328.249 255.5,325C 260.167,325 264.833,325 269.5,325C 267.343,323.088 265.009,321.421 262.5,320C 263,319.833 263.5,319.667 264,319.5C 267.425,320.982 270.925,321.816 274.5,322C 269.992,319.247 265.659,316.247 261.5,313C 263.225,313.409 264.892,313.242 266.5,312.5C 263.651,309.263 260.651,306.263 257.5,303.5C 261.022,300.911 261.355,297.911 258.5,294.5C 259.262,294.089 260.262,293.923 261.5,294C 260,292.5 258.5,291 257,289.5C 255.708,291.249 254.542,293.082 253.5,295C 251.744,295.202 250.078,295.702 248.5,296.5C 246.768,299.737 244.102,301.571 240.5,302C 233.5,310.333 225.833,318 217.5,325C 213.316,327.608 210.316,326.775 208.5,322.5C 231.31,306.032 252.31,287.366 271.5,266.5 Z"/></g>
</svg>
